<mxfile host="app.diagrams.net" modified="2024-03-06T02:59:23.437Z" agent="Mozilla/5.0 (Macintosh; Intel Mac OS X 10_15_7) AppleWebKit/537.36 (KHTML, like Gecko) Chrome/122.0.0.0 Safari/537.36" etag="EmgrIfWuYnBgOJWMfOsX" version="24.0.2" type="google">
  <diagram name="PÃ¡gina-1" id="w3RNgsCJSWVxZD1YVIgc">
    <mxGraphModel grid="1" page="1" gridSize="10" guides="1" tooltips="1" connect="1" arrows="1" fold="1" pageScale="1" pageWidth="827" pageHeight="1169" math="0" shadow="0">
      <root>
        <mxCell id="0" />
        <mxCell id="1" parent="0" />
        <mxCell id="EbGnfYnzNU8VOcdxwpaw-2" value="&lt;font style=&quot;font-size: 18px;&quot;&gt;&lt;b&gt;Users&lt;/b&gt;&lt;/font&gt;" style="rounded=0;whiteSpace=wrap;html=1;fillColor=#dae8fc;strokeColor=#6c8ebf;" vertex="1" parent="1">
          <mxGeometry x="18" y="155" width="320" height="40" as="geometry" />
        </mxCell>
        <mxCell id="EbGnfYnzNU8VOcdxwpaw-3" value="&lt;font style=&quot;font-size: 14px;&quot;&gt;&lt;i&gt;Name&lt;/i&gt;&lt;/font&gt;" style="rounded=0;whiteSpace=wrap;html=1;fillColor=#d5e8d4;strokeColor=#82b366;" vertex="1" parent="1">
          <mxGeometry x="18" y="195" width="160" height="20" as="geometry" />
        </mxCell>
        <mxCell id="EbGnfYnzNU8VOcdxwpaw-4" value="&lt;font style=&quot;font-size: 14px;&quot;&gt;&lt;i&gt;Type&lt;/i&gt;&lt;/font&gt;" style="rounded=0;whiteSpace=wrap;html=1;fillColor=#d5e8d4;strokeColor=#82b366;" vertex="1" parent="1">
          <mxGeometry x="178" y="195" width="160" height="20" as="geometry" />
        </mxCell>
        <mxCell id="EbGnfYnzNU8VOcdxwpaw-5" value="Id" style="rounded=0;whiteSpace=wrap;html=1;" vertex="1" parent="1">
          <mxGeometry x="18" y="215" width="160" height="30" as="geometry" />
        </mxCell>
        <mxCell id="EbGnfYnzNU8VOcdxwpaw-6" value="Email" style="rounded=0;whiteSpace=wrap;html=1;" vertex="1" parent="1">
          <mxGeometry x="18" y="245" width="160" height="30" as="geometry" />
        </mxCell>
        <mxCell id="EbGnfYnzNU8VOcdxwpaw-9" value="&lt;i style=&quot;border-color: var(--border-color); color: rgb(0, 0, 0); font-family: Helvetica; font-size: 12px; font-variant-ligatures: normal; font-variant-caps: normal; font-weight: 400; letter-spacing: normal; orphans: 2; text-align: center; text-indent: 0px; text-transform: none; widows: 2; word-spacing: 0px; -webkit-text-stroke-width: 0px; text-decoration-thickness: initial; text-decoration-style: initial; text-decoration-color: initial;&quot;&gt;string&lt;/i&gt;" style="rounded=0;whiteSpace=wrap;html=1;" vertex="1" parent="1">
          <mxGeometry x="178" y="245" width="160" height="30" as="geometry" />
        </mxCell>
        <mxCell id="EbGnfYnzNU8VOcdxwpaw-10" value="&lt;i style=&quot;border-color: var(--border-color); color: rgb(0, 0, 0); font-family: Helvetica; font-size: 12px; font-variant-ligatures: normal; font-variant-caps: normal; font-weight: 400; letter-spacing: normal; orphans: 2; text-align: center; text-indent: 0px; text-transform: none; widows: 2; word-spacing: 0px; -webkit-text-stroke-width: 0px; text-decoration-thickness: initial; text-decoration-style: initial; text-decoration-color: initial;&quot;&gt;string&lt;/i&gt;" style="rounded=0;whiteSpace=wrap;html=1;" vertex="1" parent="1">
          <mxGeometry x="178" y="215" width="160" height="30" as="geometry" />
        </mxCell>
        <mxCell id="EbGnfYnzNU8VOcdxwpaw-17" value="&lt;font style=&quot;font-size: 18px;&quot;&gt;&lt;b&gt;Rooms&lt;/b&gt;&lt;/font&gt;" style="rounded=0;whiteSpace=wrap;html=1;fillColor=#dae8fc;strokeColor=#6c8ebf;" vertex="1" parent="1">
          <mxGeometry x="488.05999999999995" y="175" width="320" height="40" as="geometry" />
        </mxCell>
        <mxCell id="EbGnfYnzNU8VOcdxwpaw-18" value="&lt;font style=&quot;font-size: 14px;&quot;&gt;&lt;i&gt;Name&lt;/i&gt;&lt;/font&gt;" style="rounded=0;whiteSpace=wrap;html=1;fillColor=#d5e8d4;strokeColor=#82b366;" vertex="1" parent="1">
          <mxGeometry x="488.05999999999995" y="215" width="160" height="20" as="geometry" />
        </mxCell>
        <mxCell id="EbGnfYnzNU8VOcdxwpaw-19" value="&lt;font style=&quot;font-size: 14px;&quot;&gt;&lt;i&gt;Type&lt;/i&gt;&lt;/font&gt;" style="rounded=0;whiteSpace=wrap;html=1;fillColor=#d5e8d4;strokeColor=#82b366;" vertex="1" parent="1">
          <mxGeometry x="648.06" y="215" width="160" height="20" as="geometry" />
        </mxCell>
        <mxCell id="EbGnfYnzNU8VOcdxwpaw-20" value="Id" style="rounded=0;whiteSpace=wrap;html=1;" vertex="1" parent="1">
          <mxGeometry x="488.05999999999995" y="235" width="160" height="30" as="geometry" />
        </mxCell>
        <mxCell id="EbGnfYnzNU8VOcdxwpaw-21" value="Name" style="rounded=0;whiteSpace=wrap;html=1;" vertex="1" parent="1">
          <mxGeometry x="488.05999999999995" y="265" width="160" height="30" as="geometry" />
        </mxCell>
        <mxCell id="EbGnfYnzNU8VOcdxwpaw-24" value="&lt;i style=&quot;border-color: var(--border-color); color: rgb(0, 0, 0); font-family: Helvetica; font-size: 12px; font-variant-ligatures: normal; font-variant-caps: normal; font-weight: 400; letter-spacing: normal; orphans: 2; text-align: center; text-indent: 0px; text-transform: none; widows: 2; word-spacing: 0px; -webkit-text-stroke-width: 0px; text-decoration-thickness: initial; text-decoration-style: initial; text-decoration-color: initial;&quot;&gt;string&lt;/i&gt;" style="rounded=0;whiteSpace=wrap;html=1;" vertex="1" parent="1">
          <mxGeometry x="648.06" y="265" width="160" height="30" as="geometry" />
        </mxCell>
        <mxCell id="EbGnfYnzNU8VOcdxwpaw-25" value="&lt;i style=&quot;border-color: var(--border-color); color: rgb(0, 0, 0); font-family: Helvetica; font-size: 12px; font-variant-ligatures: normal; font-variant-caps: normal; font-weight: 400; letter-spacing: normal; orphans: 2; text-align: center; text-indent: 0px; text-transform: none; widows: 2; word-spacing: 0px; -webkit-text-stroke-width: 0px; text-decoration-thickness: initial; text-decoration-style: initial; text-decoration-color: initial;&quot;&gt;string&lt;/i&gt;" style="rounded=0;whiteSpace=wrap;html=1;" vertex="1" parent="1">
          <mxGeometry x="648.06" y="235" width="160" height="30" as="geometry" />
        </mxCell>
        <mxCell id="EbGnfYnzNU8VOcdxwpaw-32" value="&lt;font style=&quot;font-size: 18px;&quot;&gt;&lt;b&gt;Organizations&lt;/b&gt;&lt;/font&gt;" style="rounded=0;whiteSpace=wrap;html=1;fillColor=#dae8fc;strokeColor=#6c8ebf;" vertex="1" parent="1">
          <mxGeometry x="18" y="465" width="320" height="40" as="geometry" />
        </mxCell>
        <mxCell id="EbGnfYnzNU8VOcdxwpaw-33" value="&lt;font style=&quot;font-size: 14px;&quot;&gt;&lt;i&gt;Name&lt;/i&gt;&lt;/font&gt;" style="rounded=0;whiteSpace=wrap;html=1;fillColor=#d5e8d4;strokeColor=#82b366;" vertex="1" parent="1">
          <mxGeometry x="18" y="505" width="160" height="20" as="geometry" />
        </mxCell>
        <mxCell id="EbGnfYnzNU8VOcdxwpaw-34" value="&lt;font style=&quot;font-size: 14px;&quot;&gt;&lt;i&gt;Type&lt;/i&gt;&lt;/font&gt;" style="rounded=0;whiteSpace=wrap;html=1;fillColor=#d5e8d4;strokeColor=#82b366;" vertex="1" parent="1">
          <mxGeometry x="178" y="505" width="160" height="20" as="geometry" />
        </mxCell>
        <mxCell id="EbGnfYnzNU8VOcdxwpaw-35" value="Name" style="rounded=0;whiteSpace=wrap;html=1;" vertex="1" parent="1">
          <mxGeometry x="18" y="525" width="160" height="30" as="geometry" />
        </mxCell>
        <mxCell id="EbGnfYnzNU8VOcdxwpaw-36" value="Admin" style="rounded=0;whiteSpace=wrap;html=1;" vertex="1" parent="1">
          <mxGeometry x="18" y="555" width="160" height="30" as="geometry" />
        </mxCell>
        <mxCell id="EbGnfYnzNU8VOcdxwpaw-39" value="&lt;i style=&quot;border-color: var(--border-color); color: rgb(0, 0, 0); font-family: Helvetica; font-size: 12px; font-variant-ligatures: normal; font-variant-caps: normal; font-weight: 400; letter-spacing: normal; orphans: 2; text-align: center; text-indent: 0px; text-transform: none; widows: 2; word-spacing: 0px; -webkit-text-stroke-width: 0px; text-decoration-thickness: initial; text-decoration-style: initial; text-decoration-color: initial;&quot;&gt;string&lt;/i&gt;" style="rounded=0;whiteSpace=wrap;html=1;" vertex="1" parent="1">
          <mxGeometry x="178" y="555" width="160" height="30" as="geometry" />
        </mxCell>
        <mxCell id="EbGnfYnzNU8VOcdxwpaw-40" value="&lt;i style=&quot;border-color: var(--border-color); color: rgb(0, 0, 0); font-family: Helvetica; font-size: 12px; font-variant-ligatures: normal; font-variant-caps: normal; font-weight: 400; letter-spacing: normal; orphans: 2; text-align: center; text-indent: 0px; text-transform: none; widows: 2; word-spacing: 0px; -webkit-text-stroke-width: 0px; text-decoration-thickness: initial; text-decoration-style: initial; text-decoration-color: initial;&quot;&gt;string&lt;/i&gt;" style="rounded=0;whiteSpace=wrap;html=1;" vertex="1" parent="1">
          <mxGeometry x="178" y="525" width="160" height="30" as="geometry" />
        </mxCell>
        <mxCell id="EbGnfYnzNU8VOcdxwpaw-47" value="&lt;font style=&quot;font-size: 18px;&quot;&gt;&lt;b&gt;Messages&lt;/b&gt;&lt;/font&gt;" style="rounded=0;whiteSpace=wrap;html=1;fillColor=#dae8fc;strokeColor=#6c8ebf;" vertex="1" parent="1">
          <mxGeometry x="488.05999999999995" y="450" width="320" height="40" as="geometry" />
        </mxCell>
        <mxCell id="EbGnfYnzNU8VOcdxwpaw-48" value="&lt;font style=&quot;font-size: 14px;&quot;&gt;&lt;i&gt;Name&lt;/i&gt;&lt;/font&gt;" style="rounded=0;whiteSpace=wrap;html=1;fillColor=#d5e8d4;strokeColor=#82b366;" vertex="1" parent="1">
          <mxGeometry x="488.05999999999995" y="490" width="160" height="20" as="geometry" />
        </mxCell>
        <mxCell id="EbGnfYnzNU8VOcdxwpaw-49" value="&lt;font style=&quot;font-size: 14px;&quot;&gt;&lt;i&gt;Type&lt;/i&gt;&lt;/font&gt;" style="rounded=0;whiteSpace=wrap;html=1;fillColor=#d5e8d4;strokeColor=#82b366;" vertex="1" parent="1">
          <mxGeometry x="648.06" y="490" width="160" height="20" as="geometry" />
        </mxCell>
        <mxCell id="EbGnfYnzNU8VOcdxwpaw-50" value="Author" style="rounded=0;whiteSpace=wrap;html=1;" vertex="1" parent="1">
          <mxGeometry x="488.05999999999995" y="510" width="160" height="30" as="geometry" />
        </mxCell>
        <mxCell id="EbGnfYnzNU8VOcdxwpaw-52" value="Text" style="rounded=0;whiteSpace=wrap;html=1;" vertex="1" parent="1">
          <mxGeometry x="488.05999999999995" y="540" width="160" height="30" as="geometry" />
        </mxCell>
        <mxCell id="EbGnfYnzNU8VOcdxwpaw-53" value="&lt;i style=&quot;border-color: var(--border-color); color: rgb(0, 0, 0); font-family: Helvetica; font-size: 12px; font-variant-ligatures: normal; font-variant-caps: normal; font-weight: 400; letter-spacing: normal; orphans: 2; text-align: center; text-indent: 0px; text-transform: none; widows: 2; word-spacing: 0px; -webkit-text-stroke-width: 0px; text-decoration-thickness: initial; text-decoration-style: initial; text-decoration-color: initial;&quot;&gt;string&lt;/i&gt;" style="rounded=0;whiteSpace=wrap;html=1;" vertex="1" parent="1">
          <mxGeometry x="648.06" y="540" width="160" height="30" as="geometry" />
        </mxCell>
        <mxCell id="EbGnfYnzNU8VOcdxwpaw-55" value="&lt;i style=&quot;border-color: var(--border-color); color: rgb(0, 0, 0); font-family: Helvetica; font-size: 12px; font-variant-ligatures: normal; font-variant-caps: normal; font-weight: 400; letter-spacing: normal; orphans: 2; text-align: center; text-indent: 0px; text-transform: none; widows: 2; word-spacing: 0px; -webkit-text-stroke-width: 0px; text-decoration-thickness: initial; text-decoration-style: initial; text-decoration-color: initial;&quot;&gt;string&lt;/i&gt;" style="rounded=0;whiteSpace=wrap;html=1;" vertex="1" parent="1">
          <mxGeometry x="648.06" y="510" width="160" height="30" as="geometry" />
        </mxCell>
        <mxCell id="EbGnfYnzNU8VOcdxwpaw-74" value="Organization Id" style="rounded=0;whiteSpace=wrap;html=1;" vertex="1" parent="1">
          <mxGeometry x="18" y="335" width="160" height="30" as="geometry" />
        </mxCell>
        <mxCell id="EbGnfYnzNU8VOcdxwpaw-75" value="&lt;i style=&quot;border-color: var(--border-color); color: rgb(0, 0, 0); font-family: Helvetica; font-size: 12px; font-variant-ligatures: normal; font-variant-caps: normal; font-weight: 400; letter-spacing: normal; orphans: 2; text-align: center; text-indent: 0px; text-transform: none; widows: 2; word-spacing: 0px; -webkit-text-stroke-width: 0px; text-decoration-thickness: initial; text-decoration-style: initial; text-decoration-color: initial;&quot;&gt;string&lt;/i&gt;" style="rounded=0;whiteSpace=wrap;html=1;" vertex="1" parent="1">
          <mxGeometry x="178" y="335" width="160" height="30" as="geometry" />
        </mxCell>
        <mxCell id="EbGnfYnzNU8VOcdxwpaw-76" value="Organization Id" style="rounded=0;whiteSpace=wrap;html=1;" vertex="1" parent="1">
          <mxGeometry x="488.05999999999995" y="295" width="160" height="30" as="geometry" />
        </mxCell>
        <mxCell id="EbGnfYnzNU8VOcdxwpaw-77" value="&lt;i style=&quot;border-color: var(--border-color); color: rgb(0, 0, 0); font-family: Helvetica; font-size: 12px; font-variant-ligatures: normal; font-variant-caps: normal; font-weight: 400; letter-spacing: normal; orphans: 2; text-align: center; text-indent: 0px; text-transform: none; widows: 2; word-spacing: 0px; -webkit-text-stroke-width: 0px; text-decoration-thickness: initial; text-decoration-style: initial; text-decoration-color: initial;&quot;&gt;string&lt;/i&gt;" style="rounded=0;whiteSpace=wrap;html=1;" vertex="1" parent="1">
          <mxGeometry x="648.06" y="295" width="160" height="30" as="geometry" />
        </mxCell>
        <mxCell id="EbGnfYnzNU8VOcdxwpaw-78" value="Room Id" style="rounded=0;whiteSpace=wrap;html=1;" vertex="1" parent="1">
          <mxGeometry x="488.05999999999995" y="570" width="160" height="30" as="geometry" />
        </mxCell>
        <mxCell id="EbGnfYnzNU8VOcdxwpaw-79" value="&lt;i style=&quot;border-color: var(--border-color); color: rgb(0, 0, 0); font-family: Helvetica; font-size: 12px; font-variant-ligatures: normal; font-variant-caps: normal; font-weight: 400; letter-spacing: normal; orphans: 2; text-align: center; text-indent: 0px; text-transform: none; widows: 2; word-spacing: 0px; -webkit-text-stroke-width: 0px; text-decoration-thickness: initial; text-decoration-style: initial; text-decoration-color: initial;&quot;&gt;string&lt;/i&gt;" style="rounded=0;whiteSpace=wrap;html=1;" vertex="1" parent="1">
          <mxGeometry x="648.06" y="570" width="160" height="30" as="geometry" />
        </mxCell>
        <mxCell id="EbGnfYnzNU8VOcdxwpaw-80" value="Date?" style="rounded=0;whiteSpace=wrap;html=1;" vertex="1" parent="1">
          <mxGeometry x="488.05999999999995" y="600" width="160" height="30" as="geometry" />
        </mxCell>
        <mxCell id="EbGnfYnzNU8VOcdxwpaw-81" value="&lt;i style=&quot;border-color: var(--border-color); color: rgb(0, 0, 0); font-family: Helvetica; font-size: 12px; font-variant-ligatures: normal; font-variant-caps: normal; font-weight: 400; letter-spacing: normal; orphans: 2; text-align: center; text-indent: 0px; text-transform: none; widows: 2; word-spacing: 0px; -webkit-text-stroke-width: 0px; text-decoration-thickness: initial; text-decoration-style: initial; text-decoration-color: initial;&quot;&gt;date&lt;/i&gt;" style="rounded=0;whiteSpace=wrap;html=1;" vertex="1" parent="1">
          <mxGeometry x="648.06" y="600" width="160" height="30" as="geometry" />
        </mxCell>
        <mxCell id="EbGnfYnzNU8VOcdxwpaw-82" value="Admin" style="rounded=0;whiteSpace=wrap;html=1;" vertex="1" parent="1">
          <mxGeometry x="18" y="305" width="160" height="30" as="geometry" />
        </mxCell>
        <mxCell id="EbGnfYnzNU8VOcdxwpaw-83" value="&lt;i style=&quot;border-color: var(--border-color); color: rgb(0, 0, 0); font-family: Helvetica; font-size: 12px; font-variant-ligatures: normal; font-variant-caps: normal; font-weight: 400; letter-spacing: normal; orphans: 2; text-align: center; text-indent: 0px; text-transform: none; widows: 2; word-spacing: 0px; -webkit-text-stroke-width: 0px; text-decoration-thickness: initial; text-decoration-style: initial; text-decoration-color: initial;&quot;&gt;boolean&lt;/i&gt;" style="rounded=0;whiteSpace=wrap;html=1;" vertex="1" parent="1">
          <mxGeometry x="178" y="305" width="160" height="30" as="geometry" />
        </mxCell>
        <mxCell id="EbGnfYnzNU8VOcdxwpaw-84" value="Password" style="rounded=0;whiteSpace=wrap;html=1;" vertex="1" parent="1">
          <mxGeometry x="18" y="275" width="160" height="30" as="geometry" />
        </mxCell>
        <mxCell id="EbGnfYnzNU8VOcdxwpaw-85" value="&lt;i style=&quot;border-color: var(--border-color); color: rgb(0, 0, 0); font-family: Helvetica; font-size: 12px; font-variant-ligatures: normal; font-variant-caps: normal; font-weight: 400; letter-spacing: normal; orphans: 2; text-align: center; text-indent: 0px; text-transform: none; widows: 2; word-spacing: 0px; -webkit-text-stroke-width: 0px; text-decoration-thickness: initial; text-decoration-style: initial; text-decoration-color: initial;&quot;&gt;string&lt;/i&gt;" style="rounded=0;whiteSpace=wrap;html=1;" vertex="1" parent="1">
          <mxGeometry x="178" y="275" width="160" height="30" as="geometry" />
        </mxCell>
        <mxCell id="acLNvOknc4-lTYrBu5fX-1" value="Room Ids" style="rounded=0;whiteSpace=wrap;html=1;" vertex="1" parent="1">
          <mxGeometry x="18" y="365" width="160" height="30" as="geometry" />
        </mxCell>
        <mxCell id="acLNvOknc4-lTYrBu5fX-2" value="&lt;i style=&quot;border-color: var(--border-color); color: rgb(0, 0, 0); font-family: Helvetica; font-size: 12px; font-variant-ligatures: normal; font-variant-caps: normal; font-weight: 400; letter-spacing: normal; orphans: 2; text-align: center; text-indent: 0px; text-transform: none; widows: 2; word-spacing: 0px; -webkit-text-stroke-width: 0px; text-decoration-thickness: initial; text-decoration-style: initial; text-decoration-color: initial;&quot;&gt;string[]&lt;/i&gt;" style="rounded=0;whiteSpace=wrap;html=1;" vertex="1" parent="1">
          <mxGeometry x="178" y="365" width="160" height="30" as="geometry" />
        </mxCell>
        <mxCell id="acLNvOknc4-lTYrBu5fX-3" value="User Ids" style="rounded=0;whiteSpace=wrap;html=1;" vertex="1" parent="1">
          <mxGeometry x="488.06" y="325" width="160" height="30" as="geometry" />
        </mxCell>
        <mxCell id="acLNvOknc4-lTYrBu5fX-4" value="&lt;i style=&quot;border-color: var(--border-color); color: rgb(0, 0, 0); font-family: Helvetica; font-size: 12px; font-variant-ligatures: normal; font-variant-caps: normal; font-weight: 400; letter-spacing: normal; orphans: 2; text-align: center; text-indent: 0px; text-transform: none; widows: 2; word-spacing: 0px; -webkit-text-stroke-width: 0px; text-decoration-thickness: initial; text-decoration-style: initial; text-decoration-color: initial;&quot;&gt;string[]&lt;/i&gt;" style="rounded=0;whiteSpace=wrap;html=1;" vertex="1" parent="1">
          <mxGeometry x="648.06" y="325" width="160" height="30" as="geometry" />
        </mxCell>
      </root>
    </mxGraphModel>
  </diagram>
</mxfile>
